<svg xmlns="http://www.w3.org/2000/svg" xmlns:xlink="http://www.w3.org/1999/xlink" width="255px" height="97px" viewBox="0 0 255 97" version="1.1">
    <g id="关于我们" stroke="none" stroke-width="1" fill="none" fill-rule="evenodd">
        <g id="11.11关于我们-定稿" transform="translate(-410.000000, -1257.000000)" fill="#F7B500" fill-rule="nonzero">
            <g id="我们的使命" transform="translate(410.000000, 1257.000000)">
                <g>
                    <path d="M103.819117,61.0296556 L97.328364,61.0296556 L97.328364,37.0420918 L90.5554048,61.0296556 L84.6290655,61.0296556 L78.1383129,37.0420918 L78.1383129,61.0296556 L71.5064571,61.0296556 L71.5064571,30.6924426 L81.8069992,30.6924426 L87.5922351,52.5634566 L87.8744418,52.5634566 L93.5185744,30.6924426 L103.819117,30.6924426 L103.819117,61.0296556 Z M115.518597,61.0296556 L108.886741,61.0296556 L108.886741,30.6924426 L115.518597,30.6924426 L115.518597,61.0296556 Z M120.021809,55.9499362 L120.021809,50.5880102 C123.502375,55.1974083 127.500262,57.5491067 132.015591,57.643176 C136.248711,57.643176 138.412274,56.0910551 138.506343,52.9867666 C138.506343,50.5409635 136.577951,48.9888426 132.721107,48.3303571 C124.066727,46.9193169 120.06884,43.6739731 120.727325,38.5942283 C121.009533,33.1382061 124.819285,30.363202 132.156694,30.2691327 C139.305965,30.4572713 143.444954,33.6085472 144.573786,39.7230548 L138.083033,39.7230548 C137.048271,36.4306277 135.119878,34.7374048 132.297797,34.6433355 C129.09944,34.6433355 127.547319,35.9602866 127.641388,38.5942283 C127.453249,40.945962 129.24054,42.404015 133.003314,42.9684311 C141.281417,44.56761 145.420406,47.7659199 145.420406,52.5634566 C145.514475,58.5838949 141.375486,61.5940689 133.003314,61.5940689 C127.547292,61.8762769 123.220167,59.9949182 120.021809,55.9499362 Z M148.935894,55.9499362 L148.935894,50.5880102 C152.41646,55.1974083 156.414347,57.5491067 160.929676,57.643176 C165.162797,57.643176 167.326359,56.0910551 167.420429,52.9867666 C167.420429,50.5409635 165.492036,48.9888426 161.635193,48.3303571 C152.980813,46.9193169 148.982925,43.6739731 149.641411,38.5942283 C149.923619,33.1382061 153.73337,30.363202 161.070779,30.2691327 C168.22005,30.4572713 172.359039,33.6085472 173.487871,39.7230548 L166.997119,39.7230548 C165.962356,36.4306277 164.033963,34.7374048 161.211883,34.6433355 C158.013525,34.6433355 156.461404,35.9602866 156.555473,38.5942283 C156.367335,40.945962 158.154625,42.404015 161.917399,42.9684311 C170.195502,44.56761 174.334491,47.7659199 174.334491,52.5634566 C174.42856,58.5838949 170.289571,61.5940689 161.917399,61.5940689 C156.461377,61.8762769 152.134252,59.9949182 148.935894,55.9499362 Z M185.046249,61.0296556 L178.414393,61.0296556 L178.414393,30.6924426 L185.046249,30.6924426 L185.046249,61.0296556 Z M219.74557,46.0727041 C219.275223,55.8559163 214.242589,61.0296528 204.647515,61.5940689 C195.052442,61.0296528 190.019807,55.8559163 189.54946,46.0727041 C190.019807,35.9132145 195.052442,30.64541 204.647515,30.2691327 C214.05445,30.8335487 219.087085,36.1013532 219.74557,46.0727041 Z M212.831507,46.0727041 C212.643369,38.6412256 209.915399,34.7844402 204.647515,34.5022321 C199.379632,34.8785095 196.604627,38.7352949 196.322419,46.0727041 C196.510558,53.4101132 199.285562,57.2668986 204.647515,57.643176 C210.009468,57.4550373 212.737438,53.5982519 212.831507,46.0727041 Z M251.058412,61.0296556 L244.708762,61.0296556 L230.739534,40.5696747 L230.739534,61.0296556 L224.107678,61.0296556 L224.107678,30.5513393 L230.739534,30.5513393 L244.426556,51.8579401 L244.426556,30.5513393 L251.058412,30.5513393 L251.058412,61.0296556 Z" id="MISSION" fill="#7C9BF0"/>
                    <path d="M55.0987755,73.3034313 C55.0987755,81.5070644 52.4377551,86.2704642 47.4287755,90.2399641 C42.4197959,94.3417807 35.0628571,96.3265306 27.5493878,96.3265306 C20.0359184,96.3265306 12.6789796,94.3417807 7.67,90.2399641 C2.66102041,86.2704642 -7.10542736e-15,81.5070644 -7.10542736e-15,73.3034313 L-7.10542736e-15,23.0230993 C-7.10542736e-15,14.8194662 2.66102041,10.0560664 7.67,6.08656649 C12.6789796,1.98474994 20.0359184,-3.55271368e-14 27.5493878,-3.55271368e-14 C35.0628571,-3.55271368e-14 42.4197959,1.98474994 47.4287755,6.08656649 C52.4377551,10.0560664 55.0987755,14.8194662 55.0987755,23.0230993 L55.0987755,73.3034313 Z M34.1236735,73.9650146 L34.1236735,22.361516 C34.1236735,17.9950662 31.3061224,15.8779996 27.5493878,15.8779996 C23.7926531,15.8779996 20.975102,17.9950662 20.975102,22.361516 L20.975102,73.9650146 C20.975102,78.3314645 23.7926531,80.4485311 27.5493878,80.4485311 C31.3061224,80.4485311 34.1236735,78.3314645 34.1236735,73.9650146 Z M110.91312,95.2679973 L89.9380176,95.2679973 L89.9380176,21.8322494 L72.8761809,32.1529491 L72.8761809,12.3054497 L89.9380176,1.0585333 L110.91312,1.0585333 L110.91312,95.2679973 Z" id="01" opacity="0.2" fill="#7C9BF0"/>
                </g>
            </g>
        </g>
    </g>
</svg>