<svg xmlns="http://www.w3.org/2000/svg" xmlns:xlink="http://www.w3.org/1999/xlink" width="220px" height="97px" viewBox="0 0 220 97" version="1.1">
    <g id="关于我们" stroke="none" stroke-width="1" fill="none" fill-rule="evenodd">
        <g id="11.11关于我们-定稿" transform="translate(-1020.000000, -1257.000000)" fill="#F7B500" fill-rule="nonzero">
            <g id="我们的愿景" transform="translate(1020.000000, 1257.000000)">
                <g>
                    <path d="M100.111459,30.6924426 L88.6820903,61.0296556 L80.7803046,61.0296556 L69.2098327,30.6924426 L76.4061018,30.6924426 L84.8723008,55.6677296 L92.9151898,30.6924426 L100.111459,30.6924426 Z M109.553287,61.0296556 L102.921431,61.0296556 L102.921431,30.6924426 L109.553287,30.6924426 L109.553287,61.0296556 Z M114.056498,55.9499362 L114.056498,50.5880102 C117.537064,55.1974083 121.534951,57.5491067 126.05028,57.643176 C130.283401,57.643176 132.446963,56.0910551 132.541033,52.9867666 C132.541033,50.5409635 130.61264,48.9888426 126.755797,48.3303571 C118.101417,46.9193169 114.103529,43.6739731 114.762015,38.5942283 C115.044223,33.1382061 118.853974,30.363202 126.191383,30.2691327 C133.340654,30.4572713 137.479643,33.6085472 138.608475,39.7230548 L132.117723,39.7230548 C131.08296,36.4306277 129.154567,34.7374048 126.332487,34.6433355 C123.134129,34.6433355 121.582008,35.9602866 121.676077,38.5942283 C121.487939,40.945962 123.275229,42.404015 127.038003,42.9684311 C135.316106,44.56761 139.455095,47.7659199 139.455095,52.5634566 C139.549165,58.5838949 135.410175,61.5940689 127.038003,61.5940689 C121.581981,61.8762769 117.254856,59.9949182 114.056498,55.9499362 Z M150.166853,61.0296556 L143.534997,61.0296556 L143.534997,30.6924426 L150.166853,30.6924426 L150.166853,61.0296556 Z M184.866174,46.0727041 C184.395827,55.8559163 179.363193,61.0296528 169.768119,61.5940689 C160.173046,61.0296528 155.140411,55.8559163 154.670064,46.0727041 C155.140411,35.9132145 160.173046,30.64541 169.768119,30.2691327 C179.175054,30.8335487 184.207689,36.1013532 184.866174,46.0727041 Z M177.952111,46.0727041 C177.763973,38.6412256 175.036003,34.7844402 169.768119,34.5022321 C164.500236,34.8785095 161.725232,38.7352949 161.443023,46.0727041 C161.631162,53.4101132 164.406166,57.2668986 169.768119,57.643176 C175.130072,57.4550373 177.858042,53.5982519 177.952111,46.0727041 Z M216.179016,61.0296556 L209.829366,61.0296556 L195.860138,40.5696747 L195.860138,61.0296556 L189.228282,61.0296556 L189.228282,30.5513393 L195.860138,30.5513393 L209.54716,51.8579401 L209.54716,30.5513393 L216.179016,30.5513393 L216.179016,61.0296556 Z" id="VISION" fill="#7C9BF0"/>
                    <path d="M55.0987755,73.3034313 C55.0987755,81.5070644 52.4377551,86.2704642 47.4287755,90.2399641 C42.4197959,94.3417807 35.0628571,96.3265306 27.5493878,96.3265306 C20.0359184,96.3265306 12.6789796,94.3417807 7.67,90.2399641 C2.66102041,86.2704642 -1.42108547e-14,81.5070644 -1.42108547e-14,73.3034313 L-1.42108547e-14,23.0230993 C-1.42108547e-14,14.8194662 2.66102041,10.0560664 7.67,6.08656649 C12.6789796,1.98474994 20.0359184,-3.55271368e-14 27.5493878,-3.55271368e-14 C35.0628571,-3.55271368e-14 42.4197959,1.98474994 47.4287755,6.08656649 C52.4377551,10.0560664 55.0987755,14.8194662 55.0987755,23.0230993 L55.0987755,73.3034313 Z M34.1236735,73.9650146 L34.1236735,22.361516 C34.1236735,17.9950662 31.3061224,15.8779996 27.5493878,15.8779996 C23.7926531,15.8779996 20.975102,17.9950662 20.975102,22.361516 L20.975102,73.9650146 C20.975102,78.3314645 23.7926531,80.4485311 27.5493878,80.4485311 C31.3061224,80.4485311 34.1236735,78.3314645 34.1236735,73.9650146 Z M122.026793,95.2679973 L68.1802625,95.2679973 L68.1802625,80.1838977 L96.8253645,37.7102489 C99.1733237,34.2700157 101.051691,28.7127159 101.051691,22.4938327 C101.051691,18.1273828 98.3906707,15.8779996 94.633936,15.8779996 C90.8772013,15.8779996 87.9031196,17.9950662 87.9031196,22.361516 L87.9031196,28.0511325 L66.9280176,28.0511325 L66.9280176,23.0230993 C66.9280176,14.8194662 69.589038,10.0560664 74.5980176,6.08656649 C79.6069972,1.98474994 87.1204666,-3.55271368e-14 94.633936,-3.55271368e-14 C102.147405,-3.55271368e-14 108.56516,1.45548329 113.730671,5.42498318 C118.58312,9.12984974 122.026793,14.9517829 122.026793,23.155416 C122.026793,29.7712492 119.678834,37.5779323 115.922099,43.0029155 L90.7206707,79.3899978 L122.026793,79.3899978 L122.026793,95.2679973 Z" id="02" opacity="0.2" fill="#7C9BF0"/>
                </g>
            </g>
        </g>
    </g>
</svg>