<?xml version="1.0" encoding="UTF-8"?>
<svg width="30px" height="30px" viewBox="0 0 30 30" version="1.1" xmlns="http://www.w3.org/2000/svg" xmlns:xlink="http://www.w3.org/1999/xlink">
    <g id="首页修改" stroke="none" stroke-width="1" fill="none" fill-rule="evenodd">
        <g id="1029复制-2" transform="translate(-721.000000, -59.000000)" fill="#000000" fill-rule="nonzero">
            <g id="首页" transform="translate(721.000000, 59.000000)">
                <path d="M20.9306598,27 L16.398435,27 L16.398435,22.3950762 C16.398435,22.0574443 16.1127077,21.7854631 15.7580119,21.7854631 L13.4623415,21.7854631 C13.1076456,21.7854631 12.8219184,22.0621336 12.8219184,22.3950762 L12.8219184,27 L7.92514503,27 C6.57533024,27 5.47675835,25.954279 5.47675835,24.6694021 L5.47675835,17.063306 L2.71308646,16.2426729 L2.49140155,16.031653 C1.83619948,15.4079719 1.83619948,14.3997655 2.49140155,13.7760844 L13.3194779,3.46893318 C13.6347631,3.16881594 14.0535012,3 14.5017974,3 C14.9500935,3 15.3688317,3.16412661 15.6841169,3.46893318 L26.5121932,13.7807737 C26.8274784,14.080891 27.0048264,14.4841735 26.9999,14.9062134 C26.9999,15.3329426 26.8225521,15.7315358 26.5072669,16.031653 L26.285582,16.2426729 L23.3691938,17.0679953 L23.3691938,24.6694021 C23.3741202,25.954279 22.2804746,27 20.9306598,27 L20.9306598,27 Z" id="首页icon"></path>
            </g>
        </g>
    </g>
</svg>