<?xml version="1.0" encoding="UTF-8"?>
<svg width="30px" height="30px" viewBox="0 0 30 30" version="1.1" xmlns="http://www.w3.org/2000/svg" xmlns:xlink="http://www.w3.org/1999/xlink">
    <g id="首页修改" stroke="none" stroke-width="1" fill="none" fill-rule="evenodd">
        <g id="1029复制-2" transform="translate(-989.000000, -59.000000)" fill="#000000" fill-rule="nonzero">
            <g id="印花工艺icon" transform="translate(989.000000, 59.000000)">
                <path d="M24.6094228,18.5999972 L25.9846344,25.9344008 C26.0313052,26.1837666 25.9705622,26.4412481 25.8173582,26.6434618 C25.6641542,26.8456755 25.4327202,26.973838 25.1800276,26.9964 L25.1002082,27 L19.400179,27 L19.400179,20.9999859 L19.3959602,20.913586 C19.3495402,20.4358409 18.9363642,20.0785969 18.4569194,20.1016641 C17.9774746,20.1247313 17.6005039,20.5199911 17.6001638,20.9999859 L17.6001638,27 L13.4001097,27 L13.4001097,20.9999859 L13.3959191,20.913586 C13.3494991,20.4358409 12.9363231,20.0785969 12.4568783,20.1016641 C11.9774335,20.1247313 11.6004628,20.5199911 11.6001227,20.9999859 L11.6001227,27 L5.90003727,27 C5.64619802,27.0000074 5.40415857,26.8928226 5.23356223,26.7048583 C5.06296588,26.5168939 4.97967727,26.2656297 5.00422036,26.012982 L5.01561108,25.9344008 L6.39085077,18.5999972 L24.6094228,18.5999972 Z M17.3001519,3 C18.2942729,3 19.1001671,3.80588682 19.1001671,4.79999859 L19.1001671,10.8000127 L23.9002168,10.8000127 C24.8943378,10.8000127 25.700232,11.6058995 25.700232,12.6000112 L25.700232,15.5999902 C25.700232,16.4304083 25.1374179,17.129989 24.3724114,17.3376075 L24.3844209,17.3999888 L6.61585267,17.3999888 L6.62786214,17.3376075 C5.84393859,17.1242762 5.29997351,16.4124156 5.30006972,15.5999902 L5.30006972,12.6000112 C5.30006972,11.6058995 6.10596395,10.8000127 7.10008487,10.8000127 L11.9001065,10.8000127 L11.9001065,4.79999859 C11.9001065,3.80588682 12.7060007,3 13.7001216,3 L17.3001519,3 Z"></path>
            </g>
        </g>
    </g>
</svg>