<?xml version="1.0" encoding="UTF-8"?>
<svg width="30px" height="30px" viewBox="0 0 30 30" version="1.1" xmlns="http://www.w3.org/2000/svg" xmlns:xlink="http://www.w3.org/1999/xlink">
    <g id="首页修改" stroke="none" stroke-width="1" fill="none" fill-rule="evenodd">
        <g id="1029复制-2" transform="translate(-1079.000000, -59.000000)" fill="#000000" fill-rule="nonzero">
            <g id="常见问题icon" transform="translate(1079.000000, 59.000000)">
                <path d="M23.6573494,23.2660507 C25.7248193,21.1142108 27,18.2017072 27,14.9826242 C27,8.36513829 21.6274699,3 15,3 C8.37253012,3 3,8.36224603 3,14.9826242 C3,21.5364805 8.2713253,26.8524504 14.8091566,26.9565717 L14.8004819,26.9652484 L23.4057831,26.9652484 C23.4144578,26.9623562 25.1956627,26.9883865 25.9098795,26.9999555 C26.0342169,27.0028478 26.1093976,26.8640194 26.04,26.7627904 C25.5889157,26.0860021 24.3021687,24.1481893 23.6573494,23.2660507 Z M15.1098795,22.7801514 C14.1296386,22.7801514 13.3807229,22.1091475 13.3807229,21.0910728 C13.3807229,20.072998 14.1296386,19.4193477 15.1098795,19.4193477 C16.0901205,19.4193477 16.8563855,20.072998 16.8563855,21.0910728 C16.8563855,22.1062553 16.0901205,22.7801514 15.1098795,22.7801514 Z M16.0698795,17.8806666 L14.1122892,17.8806666 C13.5918072,14.710752 17.3363855,13.903812 17.3363855,11.8127096 C17.3363855,10.661591 16.6250602,9.85465108 15.2255422,9.85465108 C14.2077108,9.85465108 13.3055422,10.3347659 12.4409639,11.2747497 L11.1744578,10.1033852 C12.2877108,8.87417567 13.6525301,8.02963638 15.4742169,8.02963638 C17.8539759,8.02963638 19.4674699,9.35429047 19.4674699,11.6391742 C19.4674699,14.5574623 15.6679518,15.0578229 16.0698795,17.8806666 Z"></path>
            </g>
        </g>
    </g>
</svg>