<?xml version="1.0" encoding="UTF-8"?>
<svg width="30px" height="30px" viewBox="0 0 30 30" version="1.1" xmlns="http://www.w3.org/2000/svg" xmlns:xlink="http://www.w3.org/1999/xlink">
    <g id="首页修改" stroke="none" stroke-width="1" fill="none" fill-rule="evenodd">
        <g id="1029复制-2" transform="translate(-810.000000, -59.000000)" fill="#ffc403" fill-rule="nonzero">
            <g id="底衫目录" transform="translate(810.000000, 59.000000)">
                <path d="M28.3741144,11.9056432 L25.5066693,14.7642784 C25.2658914,15.0040877 24.9485025,15.1267174 24.6311135,15.1267174 C24.3137245,15.1267174 23.9963356,15.0068128 23.7555577,14.7642784 L23.7555577,26.1007153 C23.7555577,26.5830589 23.3642937,26.9727489 22.880002,26.9727489 L15,26.9727489 L15,27 L7.11999805,27 C6.63570626,27 6.24444227,26.61031 6.24444227,26.1279664 L6.24444227,14.7915295 C6.00366444,15.0313387 5.68627547,15.1539684 5.3688865,15.1539684 C5.05149753,15.1539684 4.73410857,15.0340638 4.49333073,14.7915295 L1.62588557,11.9328943 C0.791371476,11.1017373 0.791371476,9.75826047 1.62588557,8.92710344 L6.95035911,3.62404905 C7.33888699,3.23708414 7.86695656,3.01907574 8.41965115,3.01907574 L10.912249,3.01907574 C11.1229296,3.01907574 11.3254019,3.09537868 11.4868325,3.23163393 C12.0258465,3.69762689 13.4376802,4.76314295 15.0985,4.76314295 C16.762056,4.76314295 18.1766258,3.69217668 18.7129037,3.22890882 C18.8715982,3.09265357 19.0713343,3.01635063 19.2792788,3.01635063 L21.5721405,3 L21.5885572,3 C22.1385157,3 22.6693213,3.2180084 23.0578492,3.60769842 L28.3741144,8.9025775 C29.2086285,9.73100942 29.2086285,11.0772113 28.3741144,11.9056432 L28.3741144,11.9056432 Z" id="底衫目录icon"></path>
            </g>
        </g>
    </g>
</svg>