<?xml version="1.0" encoding="UTF-8"?>
<svg width="30px" height="30px" viewBox="0 0 30 30" version="1.1" xmlns="http://www.w3.org/2000/svg" xmlns:xlink="http://www.w3.org/1999/xlink">
    <g id="首页修改" stroke="none" stroke-width="1" fill="none" fill-rule="evenodd">
        <g id="1029复制-2" transform="translate(-1259.000000, -59.000000)" fill="#000000" fill-rule="nonzero">
            <g id="定制攻略icon" transform="translate(1259.000000, 59.000000)">
                <g transform="translate(5.000000, 3.000000)" id="形状">
                    <path d="M0,3.45250597 L0,20.547494 C0,22.4463007 1.58229167,24 3.51604167,24 L3.79166667,24 L3.79166667,0 L3.51604167,0 C1.58229167,0 0,1.55369928 0,3.45250597 Z M19.168625,0 L5.6,0 L5.6,24 L19.168625,24 C20.1786699,23.9966995 20.9966388,23.1935116 21,22.2017184 L21,1.79828162 C20.9966388,0.806488437 20.1786699,0.00330050387 19.168625,0 L19.168625,0 Z M17.7394583,11.5331742 L15.768375,13.4196659 C15.7158004,13.4699925 15.6918059,13.5424959 15.7042083,13.6135561 L16.170875,16.2770406 C16.1853892,16.3593468 16.1509783,16.4425955 16.0821512,16.4916862 C16.013324,16.540777 15.9220577,16.5471671 15.8468333,16.5081623 L13.4105417,15.2505967 C13.3455378,15.217038 13.2678789,15.217038 13.202875,15.2505967 L10.7654167,16.5087351 C10.690213,16.5475758 10.5990703,16.5411019 10.5303424,16.4920378 C10.4616146,16.4429737 10.4272333,16.3598373 10.4416667,16.2776134 L10.9083333,13.6141289 C10.9207357,13.5430687 10.8967412,13.4705653 10.8441667,13.4202387 L8.871625,11.5331742 C8.81060331,11.4749848 8.78858413,11.387789 8.81485019,11.3083466 C8.84111625,11.2289041 8.91109753,11.1710371 8.99529167,11.1591408 L11.7191667,10.7705012 C11.791872,10.7601014 11.8547032,10.715222 11.8871667,10.6505012 L13.1051667,8.22701671 C13.1426943,8.15207406 13.2203468,8.10459782 13.3053958,8.10459782 C13.3904449,8.10459782 13.4680973,8.15207406 13.505625,8.22701671 L14.7239167,10.6507876 C14.7563801,10.7155084 14.8192113,10.7603878 14.8919167,10.7707876 L17.6166667,11.1594272 C17.7006337,11.1715844 17.7703051,11.229467 17.7964198,11.3087652 C17.8225345,11.3880634 17.8005696,11.4750432 17.73975,11.5331742 L17.7394583,11.5331742 Z"></path>
                </g>
            </g>
        </g>
    </g>
</svg>