<?xml version="1.0" standalone="no"?><!DOCTYPE svg PUBLIC "-//W3C//DTD SVG 1.1//EN" "http://www.w3.org/Graphics/SVG/1.1/DTD/svg11.dtd"><svg t="1676864039760" class="icon" viewBox="0 0 1129 1024" version="1.1" xmlns="http://www.w3.org/2000/svg" p-id="11425" xmlns:xlink="http://www.w3.org/1999/xlink" width="220.5078125" height="200"><path d="M930.002579 499.253689L456.138405 35.311709l-390.00222 2.224548A65.182807 65.182807 0 0 0 0.211862 102.048168v347.064901l492.154907 481.491198a79.660028 79.660028 0 0 0 111.262743 0l328.986029-322.912658a77.082376 77.082376 0 0 0-2.612962-108.43792zM194.206629 353.316235a88.27574 88.27574 0 1 1 88.558222-88.27574 88.664154 88.664154 0 0 1-88.558222 88.27574z m877.743341 343.463251l-305.751854 310.730606a54.83689 54.83689 0 0 1-38.841326 16.207426H677.957686a31.779267 31.779267 0 1 1 0-63.558533h44.914696l302.503307-307.199577a138.169189 138.169189 0 0 0-1.942066-195.760281L620.154731 63.559945h-31.779267a31.779267 31.779267 0 1 1 0-63.558533h36.334295a54.377856 54.377856 0 0 1 38.09981 15.254048l406.350887 396.640557a200.774344 200.774344 0 0 1 2.930755 284.883469z" p-id="11426" fill="#707070"></path></svg>