<?xml version="1.0" standalone="no"?><!DOCTYPE svg PUBLIC "-//W3C//DTD SVG 1.1//EN" "http://www.w3.org/Graphics/SVG/1.1/DTD/svg11.dtd"><svg t="1672126063208" class="icon" viewBox="0 0 1024 1024" version="1.1" xmlns="http://www.w3.org/2000/svg" p-id="2163" xmlns:xlink="http://www.w3.org/1999/xlink" width="200" height="200"><path d="M726.1 407.1c15.6 10 30 21.2 43.8 33.2 4.6 4 10.7 6.1 16.7 4.9 57.6-10.9 100.8-62.6 98.5-123.9-2.3-59.3-49.6-109.9-108.6-115.9-8.6-0.9-17-0.8-25.1 0-12.1 1.2-19.7 13.6-16.6 25.3 4.9 18.4 7.6 37.6 7.6 57.5 0 40.6-10.9 78.6-29.6 111.6 4.4 2.2 9 4.6 13.3 7.3zM854.2 453.1c-7.3 5.2-15 9.7-23.2 13.5-11.5 5.4-14.7 20.5-6.9 30.5 36.2 46.3 61.8 100.3 74.3 158.3h70.3c21.6 0 37.9-19.6 34.2-40.9-11.8-68.3-52.5-127-108.9-163.2-12.2-7.9-27.9-6.7-39.8 1.8zM237.4 445.2c6 1.1 12.1-0.9 16.7-4.9 13.8-12 28.2-23.2 43.8-33.2 4.3-2.8 8.8-5.1 13.4-7.2-18.8-33-29.6-71-29.6-111.6 0-19.9 2.7-39.2 7.6-57.5 3.1-11.7-4.6-24.1-16.6-25.3-8.2-0.8-16.5-0.9-25.1 0-59 6-106.4 56.6-108.6 115.9-2.4 61.3 40.8 112.9 98.4 123.8zM55.3 655.4h70.3c12.5-58 38.1-112 74.3-158.3 7.8-10 4.6-25.1-6.9-30.5-8.1-3.8-15.9-8.3-23.2-13.5-11.9-8.5-27.6-9.7-39.9-1.8C73.5 487.5 32.8 546.2 21 614.5c-3.6 21.3 12.7 40.9 34.3 40.9z" fill="#707070" p-id="2164"></path><path d="M515.4 288.3m-165.4 0a165.4 165.4 0 1 0 330.8 0 165.4 165.4 0 1 0-330.8 0Z" fill="#707070" p-id="2165"></path><path d="M189.2 682.4c-4.9 28.7 17.7 54.9 46.8 54.9h558.9c29.1 0 51.7-26.2 46.8-54.9-15.8-93.6-71.5-174.1-148.7-223.5-16.7-10.7-38.1-9-54.2 2.5-34.8 24.9-77.3 39.5-123.3 39.5s-88.5-14.7-123.3-39.5c-16.2-11.6-37.5-13.3-54.2-2.5-77.3 49.4-133 129.9-148.8 223.5zM962.6 819.2H61.4c-22.5 0-41 18.4-41 41 0 22.5 18.4 41 41 41h901.1c22.5 0 41-18.4 41-41s-18.4-41-40.9-41z" fill="#707070" p-id="2166"></path></svg>