<?xml version="1.0" standalone="no"?><!DOCTYPE svg PUBLIC "-//W3C//DTD SVG 1.1//EN" "http://www.w3.org/Graphics/SVG/1.1/DTD/svg11.dtd"><svg t="1677806580672" class="icon" viewBox="0 0 1024 1024" version="1.1" xmlns="http://www.w3.org/2000/svg" p-id="6084" xmlns:xlink="http://www.w3.org/1999/xlink" width="200" height="200"><path d="M201.152 395.2l-132.608-57.92a64 64 0 0 1 0-117.28L486.688 37.44a64 64 0 0 1 51.2 0l418.144 182.56a64 64 0 0 1 0 117.312l-133.184 58.144 132.608 57.92a64 64 0 0 1 0 117.28l-132.608 57.92 133.184 58.112a64 64 0 0 1 0 117.312L537.92 986.56a64 64 0 0 1-51.2 0L68.544 804a64 64 0 0 1 0-117.312l132.608-57.888-133.184-58.144a64 64 0 0 1 0-117.312l133.184-58.144z m336.736 360.32a64 64 0 0 1-51.2 0L278.72 664.8l-184.608 80.576 418.144 182.56 418.144-182.56-184.576-80.576-207.968 90.784z m-0.576-233.344a64 64 0 0 1-51.2 0l-207.968-90.752L93.568 512l418.144 182.56L929.856 512l-184.608-80.576-207.936 90.752zM512.32 96.096L94.144 278.656l418.144 182.528 418.144-182.528L512.32 96.096z" fill="#707070" p-id="6085"></path></svg>