<?xml version="1.0" standalone="no"?><!DOCTYPE svg PUBLIC "-//W3C//DTD SVG 1.1//EN" "http://www.w3.org/Graphics/SVG/1.1/DTD/svg11.dtd"><svg t="1672126264163" class="icon" viewBox="0 0 1024 1024" version="1.1" xmlns="http://www.w3.org/2000/svg" p-id="2433" xmlns:xlink="http://www.w3.org/1999/xlink" width="200" height="200"><path d="M955.9 798.1c4.6-1.8 7.6-6.5 6.4-11.4-3.8-14.1-9.3-27.3-16.5-39.5-1.7-2.9-4.8-4.5-8-4.5-1.3 0-2.7 0.3-4 0.9-4.2 1.9-8.8 2.9-13.3 2.9-8.2 0-16.3-3.1-22.4-9.3-9.7-9.7-11.8-24-6.4-35.8 1.9-4.4 0.5-9.6-3.6-12-12.2-7.2-25.6-12.7-39.5-16.5-0.8-0.2-1.6-0.3-2.3-0.3-4 0-7.6 2.8-9.1 6.7-4.7 11.9-16.1 20.4-29.7 20.4-13.6 0-25-8.5-29.7-20.4-1.5-3.9-5.2-6.7-9.2-6.7-0.7 0-1.4 0.1-2.2 0.3-14.1 3.8-27.3 9.3-39.5 16.5-4.1 2.4-5.6 7.6-3.6 12 5.3 11.8 3.3 26.2-6.4 35.8-6.2 6.2-14.3 9.3-22.5 9.3-4.5 0-9.1-1-13.3-2.9-1.3-0.6-2.6-0.9-4-0.9-3.2 0-6.3 1.6-8 4.5-7.2 12.3-12.7 25.6-16.5 39.5-1.3 4.8 1.7 9.6 6.4 11.4 11.9 4.7 20.4 16.1 20.4 29.7 0 13.5-8.5 25-20.4 29.7-4.6 1.8-7.6 6.5-6.4 11.4 3.8 14.1 9.3 27.3 16.5 39.5 1.7 2.9 4.8 4.5 8 4.5 1.3 0 2.7-0.3 4-0.9 4.2-1.9 8.8-2.9 13.3-2.9 8.2 0 16.3 3.1 22.4 9.3 9.7 9.7 11.8 24 6.4 35.8-1.9 4.4-0.5 9.6 3.6 12 12.2 7.2 25.6 12.7 39.5 16.5 0.8 0.2 1.6 0.3 2.3 0.3 4 0 7.6-2.8 9.1-6.7 4.7-11.9 16.1-20.4 29.7-20.4 13.6 0 25 8.5 29.7 20.4 1.5 3.9 5.2 6.7 9.2 6.7 0.7 0 1.4-0.1 2.2-0.3 14.1-3.8 27.3-9.3 39.5-16.5 4.1-2.4 5.6-7.6 3.6-12-5.3-11.8-3.3-26.2 6.4-35.8 6.2-6.2 14.3-9.3 22.5-9.3 4.5 0 9.1 1 13.3 2.9 1.3 0.6 2.7 0.9 4 0.9 3.2 0 6.3-1.6 8-4.5 7.2-12.3 12.7-25.6 16.5-39.5 1.2-4.8-1.8-9.6-6.4-11.4-11.9-4.7-20.4-16.1-20.4-29.7 0-13.5 8.5-25 20.4-29.7z m-100.6 49.6c-5.3 3.7-10.2 7.9-14.8 12.5-4.9 4.8-9.3 10.1-13.2 15.6-6.5-1.1-13.2-1.7-20-1.7-6.8 0-13.5 0.6-20 1.7-3.7-5.3-7.8-10.2-12.4-14.8-4.8-4.9-10.1-9.3-15.6-13.2 1.1-6.5 1.7-13.2 1.7-19.9 0-6.8-0.6-13.4-1.7-19.9 5.3-3.7 10.2-7.9 14.8-12.5 4.9-4.8 9.3-10.1 13.1-15.6 6.5 1.1 13.2 1.7 20 1.7 6.8 0 13.5-0.6 20-1.7 3.7 5.3 7.8 10.2 12.4 14.8 4.8 4.9 10.1 9.3 15.6 13.2-1.1 6.5-1.7 13.2-1.7 19.9 0.1 6.7 0.7 13.4 1.8 19.9z" fill="#707070" p-id="2434"></path><path d="M962.6 163.8C962.6 96.1 907.4 41 839.7 41H184.3C116.6 41 61.4 96.1 61.4 163.8v122.9c0 31.5 12 60.2 31.5 81.9-19.5 21.8-31.5 50.4-31.5 81.9v122.9c0 31.5 12 60.2 31.5 81.9-19.5 21.8-31.5 50.4-31.5 81.9v122.9c0 67.8 55.1 122.9 122.9 122.9H512c22.6 0 41-18.3 41-41s-18.3-41-41-41H184.3c-22.6 0-41-18.4-41-41V737.3c0-22.6 18.4-41 41-41H512c22.6 0 41-18.3 41-41s-18.3-41-41-41H184.3c-22.6 0-41-18.4-41-41V450.6c0-22.6 18.4-41 41-41h655.4c22.6 0 41 18.4 41 41v122.9c0 22.6 18.3 41 41 41s41-18.3 41-41V450.6c0-31.5-12-60.2-31.5-81.9 19.5-21.8 31.5-50.4 31.5-81.9v-123zM184.3 327.7c-22.6 0-41-18.4-41-41V163.8c0-22.6 18.4-41 41-41h655.4c22.6 0 41 18.4 41 41v122.9c0 22.6-18.4 41-41 41H184.3z" fill="#707070" p-id="2435"></path><path d="M266.2 163.8c-22.5 0-41 18.4-41 41v41c0 22.5 18.4 41 41 41s41-18.4 41-41v-41c0-22.5-18.4-41-41-41zM225.3 491.5v41c0 22.5 18.4 41 41 41s41-18.4 41-41v-41c0-22.5-18.4-41-41-41s-41 18.5-41 41zM225.3 778.2v41c0 22.5 18.4 41 41 41s41-18.4 41-41v-41c0-22.5-18.4-41-41-41s-41 18.5-41 41zM686.1 194.6c-16.9 0-30.7 13.8-30.7 30.7s13.8 30.7 30.7 30.7 30.7-13.8 30.7-30.7-13.8-30.7-30.7-30.7zM788.5 194.6c-16.9 0-30.7 13.8-30.7 30.7s13.8 30.7 30.7 30.7 30.7-13.8 30.7-30.7-13.8-30.7-30.7-30.7zM583.7 194.6c-16.9 0-30.7 13.8-30.7 30.7s13.8 30.7 30.7 30.7 30.7-13.8 30.7-30.7-13.8-30.7-30.7-30.7z" fill="#707070" p-id="2436"></path></svg>