<?xml version="1.0" standalone="no"?><!DOCTYPE svg PUBLIC "-//W3C//DTD SVG 1.1//EN" "http://www.w3.org/Graphics/SVG/1.1/DTD/svg11.dtd"><svg t="1672108667841" class="icon" viewBox="0 0 1024 1024" version="1.1" xmlns="http://www.w3.org/2000/svg" p-id="1411" xmlns:xlink="http://www.w3.org/1999/xlink" width="200" height="200"><path d="M634.9 952.3H143.4c-67.8 0-122.9-55.1-122.9-122.9v-81.9c0-158.1 128.6-286.7 286.7-286.7H471c158.1 0 286.7 128.6 286.7 286.7v81.9c0.1 67.8-55.1 122.9-122.8 122.9zM307.2 542.7c-112.9 0-204.8 91.9-204.8 204.8v81.9c0 22.6 18.4 41 41 41h491.5c22.6 0 41-18.4 41-41v-81.9c0-112.9-91.9-204.8-204.8-204.8H307.2zM913.2 849.9c-22.6 0-41-18.3-41-41s18.3-41 41-41c4.6 0 8.4-3.9 8.4-8.4v-49.4c0-59.1-48.1-107.2-107.2-107.2-22.6 0-41-18.3-41-41s18.3-41 41-41c104.3 0 189.1 84.8 189.1 189.1v49.4c0 50-40.5 90.5-90.3 90.5zM347.8 153.6c63.6 0 90.4 11.8 95.3 16.4 16.4 16.4 25.6 38 25.9 60.7 0.2 22-8 42.6-23.2 57.8-15 15-35.2 23.2-56.8 23.2-23.1 0-45-9.2-61.6-25.8-7.9-8.5-20.3-50.9-15.3-131.1 11-0.7 23.1-1.2 35.7-1.2m0-81.9c-30 0-58 2.3-78.3 4.5-18.9 2.1-33.9 17.1-36 36-6.5 58.6-13.3 182.4 35.8 231.5 33.2 33.2 76.6 49.9 119.6 49.9 41.8 0 83.2-15.7 114.7-47.2 64-64 62.8-168.9-2.6-234.3-32.1-32.2-96.3-40.4-153.2-40.4z" fill="#707070" p-id="1412"></path><path d="M389.1 633.7c-22.5 0-41 18.4-41 41v81.9c0 22.5 18.4 41 41 41 22.5 0 41-18.4 41-41v-81.9c0-22.6-18.5-41-41-41zM726.4 465.7c-22.6 0-41-18.3-41-41 0-22.6 18.3-41 41-41 33.4 0 60.5-30.2 60.5-67.4s-27.2-67.4-60.5-67.4c-2.1 0-4.1 0.1-6.1 0.3-22.4 2.5-42.8-13.6-45.3-36.1s13.6-42.8 36.1-45.3c5-0.6 10.2-0.9 15.4-0.9 78.5 0 142.5 67 142.5 149.3s-64.1 149.5-142.6 149.5z" fill="#707070" p-id="1413"></path></svg>