<?xml version="1.0" standalone="no"?><!DOCTYPE svg PUBLIC "-//W3C//DTD SVG 1.1//EN" "http://www.w3.org/Graphics/SVG/1.1/DTD/svg11.dtd"><svg t="1670378063041" class="icon" viewBox="0 0 1024 1024" version="1.1" xmlns="http://www.w3.org/2000/svg" p-id="3904" data-spm-anchor-id="a313x.7781069.0.i47" xmlns:xlink="http://www.w3.org/1999/xlink" width="200" height="200"><path d="M444.4 442.8c-6.7 0-12.2-5.5-12.2-12.2v-313c0-6.7 5.5-12.2 12.2-12.2s12.2 5.5 12.2 12.2v313c0 6.8-5.5 12.2-12.2 12.2zM604.1 442.8c-6.7 0-12.2-5.5-12.2-12.2v-313c0-6.7 5.5-12.2 12.2-12.2s12.2 5.5 12.2 12.2v313c0 6.8-5.5 12.2-12.2 12.2z" fill="#7C9BF0" p-id="3905" data-spm-anchor-id="a313x.7781069.0.i50" class="selected"></path><path d="M767.6 129.8H280.9c-6.7 0-12.2-5.5-12.2-12.2s5.5-12.2 12.2-12.2h486.7c6.7 0 12.2 5.5 12.2 12.2s-5.5 12.2-12.2 12.2z" fill="#707070" p-id="3906" data-spm-anchor-id="a313x.7781069.0.i48" class=""></path><path d="M767.6 976.6H280.9c-6.7 0-12.2-5.5-12.2-12.2V61.6c0-6.7 5.5-12.2 12.2-12.2s12.2 5.5 12.2 12.2v890.6h462.3V61c0-6.7 5.5-12.2 12.2-12.2s12.2 5.5 12.2 12.2v903.5c0 6.7-5.5 12.1-12.2 12.1z" fill="#707070" p-id="3907" data-spm-anchor-id="a313x.7781069.0.i49" class=""></path><path d="M524.2 976.6c-6.7 0-12.2-5.5-12.2-12.2V318.7c0-6.7 5.5-12.2 12.2-12.2s12.2 5.5 12.2 12.2v645.7c0 6.8-5.4 12.2-12.2 12.2zM767.6 73.2H280.9c-6.7 0-12.2-5.5-12.2-12.2s5.5-12.2 12.2-12.2h486.7c6.7 0 12.2 5.5 12.2 12.2s-5.5 12.2-12.2 12.2z" fill="#707070" p-id="3908" data-spm-anchor-id="a313x.7781069.0.i46" class=""></path></svg>