<?xml version="1.0" standalone="no"?><!DOCTYPE svg PUBLIC "-//W3C//DTD SVG 1.1//EN" "http://www.w3.org/Graphics/SVG/1.1/DTD/svg11.dtd"><svg t="1677116468156" class="icon" viewBox="0 0 1024 1024" version="1.1" xmlns="http://www.w3.org/2000/svg" p-id="3066" xmlns:xlink="http://www.w3.org/1999/xlink" width="200" height="200"><path d="M536.4 862.1H83c-10.5 0-19 8.6-19 19v50.5c0 10.5 8.6 19 19 19h453.3c10.5 0 19-8.6 19-19v-50.5c0.2-10.5-8.4-19-18.9-19z m418.7-99.5L672.4 479.9c-6.5-6.7-17.3-6.7-24 0l-3.1 3.1-51.2-51.3 46.8-46.7c6.5-6.5 6.5-17.3 0-24L495.6 215.8c-6.5-6.5-17.3-6.5-24 0l-137 137c-6.5 6.5-6.7 17.3 0 24L479.8 522c6.7 6.5 17.3 6.5 24 0l46.9-46.8 51.3 51.3-3.1 3.1c-6.5 6.5-6.5 17.3 0 24l282.7 282.7c6.7 6.7 17.3 6.5 24 0l49.7-49.7c6.3-6.6 6.3-17.4-0.2-24zM685.2 373.9L482.6 171.3c-6.5-6.5-6.5-17.3 0-24l69-69c6.5-6.5 17.3-6.5 24 0L778.4 281c6.5 6.5 6.5 17.3 0 24l-69 69c-6.8 6.6-17.5 6.6-24.2-0.1zM399.8 659.4L197.2 456.8c-6.5-6.7-6.5-17.3 0-24l68.2-68.2c6.7-6.5 17.3-6.5 24 0L492 567.1c6.5 6.5 6.5 17.3 0 24l-68.2 68.2c-6.7 6.7-17.3 6.7-24 0.1z" p-id="3067" fill="#7C9BF0"></path></svg>