<?xml version="1.0" standalone="no"?><!DOCTYPE svg PUBLIC "-//W3C//DTD SVG 1.1//EN" "http://www.w3.org/Graphics/SVG/1.1/DTD/svg11.dtd"><svg t="1670745592410" class="icon" viewBox="0 0 1024 1024" version="1.1" xmlns="http://www.w3.org/2000/svg" p-id="18881" xmlns:xlink="http://www.w3.org/1999/xlink" width="200" height="200"><path d="M713.955556 341.333333c0 15.36-13.084444 28.444444-28.444445 28.444445H344.746667c-15.36 0-28.444444-12.515556-28.444445-28.444445l0.568889-189.44h397.084445V341.333333zM853.333333 56.888889H170.666667C108.088889 56.888889 56.888889 108.088889 56.888889 170.666667v682.666666c0 62.577778 51.2 113.777778 113.777778 113.777778h269.084444a43.804444 43.804444 0 0 0 0-87.608889H200.248889c-31.288889 0-56.888889-25.6-56.888889-56.888889V209.92a56.888889 56.888889 0 0 1 56.888889-56.888889H227.555556V398.222222c0 31.288889 25.6 56.888889 56.888888 56.888889h455.111112c31.288889 0 56.888889-25.6 56.888888-56.888889V153.031111h28.444445c31.288889 0 56.888889 25.6 56.888889 56.888889v228.693333a42.666667 42.666667 0 0 0 85.333333 0V170.666667c0-62.577778-51.2-113.777778-113.777778-113.777778z" fill="#707070" p-id="18882"></path><path d="M625.777778 199.68v113.777778c0 15.928889-16.497778 27.875556-28.216889 27.875555C585.386667 341.333333 568.888889 329.386667 568.888889 313.457778v-113.777778c0-15.928889 16.497778-29.013333 28.672-29.013333 11.719111 0 28.216889 13.653333 28.216889 29.013333" fill="#707070" p-id="18883"></path><path d="M702.577778 702.577778v-96.711111a36.977778 36.977778 0 1 1 73.955555 0v96.711111h96.711111a36.977778 36.977778 0 1 1 0 73.955555h-96.711111v96.711111a36.977778 36.977778 0 1 1-73.955555 0v-96.711111h-96.711111a36.977778 36.977778 0 1 1 0-73.955555h96.711111z" fill="#707070" p-id="18884"></path></svg>