<?xml version="1.0" standalone="no"?><!DOCTYPE svg PUBLIC "-//W3C//DTD SVG 1.1//EN" "http://www.w3.org/Graphics/SVG/1.1/DTD/svg11.dtd"><svg t="1670218994011" class="icon" viewBox="0 0 1024 1024" version="1.1" xmlns="http://www.w3.org/2000/svg" p-id="1592" xmlns:xlink="http://www.w3.org/1999/xlink" width="200" height="200"><path d="M193.030853 192.85024c-15.954367 0-29.007661 13.053294-29.007661 29.007661l0 71.167876c0 15.954367 13.053294 29.007661 29.007661 29.007661l643.973754 0c15.954367 0 29.007661-13.053294 29.007661-29.007661l0-71.167876c0-15.954367-13.053294-29.007661-29.007661-29.007661L193.030853 192.85024z" p-id="1593" fill="#707070"></path><path d="M193.030853 462.400349c-15.954367 0-29.007661 13.053294-29.007661 29.007661l0 71.167876c0 15.954367 13.053294 29.007661 29.007661 29.007661l643.973754 0c15.954367 0 29.007661-13.053294 29.007661-29.007661l0-71.167876c0-15.954367-13.053294-29.007661-29.007661-29.007661L193.030853 462.400349z" p-id="1594" fill="#707070"></path><path d="M193.030853 731.951481c-15.954367 0-29.007661 13.053294-29.007661 29.007661l0 71.167876c0 15.954367 13.053294 29.007661 29.007661 29.007661l643.973754 0c15.954367 0 29.007661-13.053294 29.007661-29.007661l0-71.167876c0-15.954367-13.053294-29.007661-29.007661-29.007661L193.030853 731.951481z" p-id="1595" fill="#707070"></path></svg>