<?xml version="1.0" standalone="no"?><!DOCTYPE svg PUBLIC "-//W3C//DTD SVG 1.1//EN" "http://www.w3.org/Graphics/SVG/1.1/DTD/svg11.dtd"><svg t="1675246683559" class="icon" viewBox="0 0 1024 1024" version="1.1" xmlns="http://www.w3.org/2000/svg" p-id="5528" data-spm-anchor-id="a313x.7781069.0.i2" xmlns:xlink="http://www.w3.org/1999/xlink" width="200" height="200"><path d="M603.21 379.976c91.178 91.63 91.99 239.23 2.41 331.772l-2.746 2.792-110.516 110.526c-92.472 92.48-242.433 92.445-334.949-0.079-91.59-91.599-92.54-239.506-2.825-332.189l2.747-2.791 83.509-83.518 66.507 66.514-83.51 83.517c-55.2 55.206-55.732 144.39-1.609 200.302l1.657 1.684c55.227 55.232 144.403 55.805 200.283 1.703l1.683-1.656 110.516-110.526c55.2-55.206 55.732-144.39 1.61-200.302l-1.245-1.265 66.479-66.484z" fill="#707070" fill-opacity=".461" p-id="5529"></path><path d="M603.21 379.976c91.178 91.63 91.99 239.23 2.41 331.772l-2.746 2.792-110.516 110.526c-92.472 92.48-242.433 92.445-334.949-0.079-91.59-91.599-92.54-239.506-2.825-332.189l2.747-2.791 83.509-83.518 66.507 66.514-83.51 83.517c-55.2 55.206-55.732 144.39-1.609 200.302l1.657 1.684c55.227 55.232 144.403 55.805 200.283 1.703l1.683-1.656 110.516-110.526c55.2-55.206 55.732-144.39 1.61-200.302l-1.245-1.265 66.479-66.484z" fill="#707070" fill-opacity=".574" p-id="5530" data-spm-anchor-id="a313x.7781069.0.i4" class=""></path><path d="M867.054 198.416c91.59 91.599 92.54 239.507 2.825 332.19l-2.747 2.791-85.171 85.18-66.507-66.514 85.172-85.18c55.2-55.205 55.732-144.39 1.61-200.301l-1.658-1.684c-55.226-55.232-144.403-55.805-200.283-1.704l-1.683 1.657-110.516 110.526c-55.2 55.206-55.732 144.39-1.609 200.302l1.243 1.264-66.478 66.484c-91.176-91.63-91.988-239.23-2.409-331.772l2.747-2.791 110.515-110.527c92.472-92.48 242.434-92.445 334.949 0.08z" fill="#707070" fill-opacity=".461" p-id="5531" data-spm-anchor-id="a313x.7781069.0.i3" class=""></path></svg>