<?xml version="1.0" standalone="no"?><!DOCTYPE svg PUBLIC "-//W3C//DTD SVG 1.1//EN" "http://www.w3.org/Graphics/SVG/1.1/DTD/svg11.dtd"><svg t="1670383851960" class="icon" viewBox="0 0 1024 1024" version="1.1" xmlns="http://www.w3.org/2000/svg" p-id="3849" xmlns:xlink="http://www.w3.org/1999/xlink" width="200" height="200"><path d="M808.399 780.398a419.657 419.657 0 1 0-593.484 0l0.237-0.237 2.609 2.577a8 8 0 0 0 11.313-0.071l35.938-36.39a8 8 0 0 0-0.07-11.314l-2.311-2.281 0.01-0.01a352.166 352.166 0 0 1 53.366-541.827A352.158 352.158 0 0 1 837.011 348.89a352.166 352.166 0 0 1-75.049 382.485l-3.284 3.213a8 8 0 0 0-0.124 11.313l35.766 36.56a8 8 0 0 0 11.313 0.123l2.503-2.448 0.263 0.262zM513.755 294.184l28.377 29.062a72.004 72.004 0 0 0 52.372 21.693l40.617-0.484-0.484 40.616a71.998 71.998 0 0 0 21.693 52.372l29.062 28.378-29.062 28.378a72 72 0 0 0-21.693 52.372l0.484 40.616-40.617-0.484a72 72 0 0 0-52.372 21.694l-28.377 29.062-28.378-29.062a72 72 0 0 0-52.372-21.694l-40.617 0.484 0.484-40.616a71.998 71.998 0 0 0-21.693-52.372l-29.062-28.378 29.062-28.378a71.998 71.998 0 0 0 21.693-52.372l-0.484-40.616 40.617 0.484a72.004 72.004 0 0 0 52.372-21.693l28.378-29.062z m11.447-68.433c-6.278-6.429-16.617-6.429-22.895 0l-56.997 58.371a16 16 0 0 1-11.638 4.821l-81.578-0.972c-8.985-0.107-16.297 7.204-16.189 16.19l0.971 81.577a16.001 16.001 0 0 1-4.82 11.638l-58.372 56.997c-6.429 6.278-6.429 16.618 0 22.896l58.372 56.997a16.003 16.003 0 0 1 4.82 11.638l-0.971 81.578c-0.108 8.985 7.204 16.296 16.189 16.189l81.578-0.972a16 16 0 0 1 11.638 4.821l56.997 58.371c6.278 6.429 16.617 6.429 22.895 0l56.997-58.371a16 16 0 0 1 11.638-4.821l81.578 0.972c8.985 0.107 16.297-7.204 16.189-16.189l-0.971-81.578a16.003 16.003 0 0 1 4.82-11.638l58.372-56.997c6.429-6.278 6.429-16.618 0-22.896l-58.372-56.997a16.001 16.001 0 0 1-4.82-11.638l0.971-81.577c0.108-8.986-7.204-16.297-16.189-16.19l-81.578 0.972a16 16 0 0 1-11.638-4.821l-56.997-58.371zM320 744a8 8 0 0 1 8-8h48a8 8 0 0 1 8 8v108.663l104.035-104.036c10.119-10.118 25.329-12.044 37.385-5.776a31.934 31.934 0 0 1 8.305 5.784L642 852.834V744a8 8 0 0 1 8-8h48a8 8 0 0 1 8 8v184c0 17.673-14.327 32-32 32-8.629 0-16.461-3.416-22.217-8.969a37.016 37.016 0 0 1-1.02-0.941L511.298 815.874 374.882 952.29c-12.496 12.497-32.758 12.497-45.255 0a31.862 31.862 0 0 1-9.111-18.536A32.187 32.187 0 0 1 320 928V744z" p-id="3850" fill="#707070"></path></svg>