<?xml version="1.0" standalone="no"?><!DOCTYPE svg PUBLIC "-//W3C//DTD SVG 1.1//EN" "http://www.w3.org/Graphics/SVG/1.1/DTD/svg11.dtd"><svg t="1670394897652" class="icon" viewBox="0 0 1024 1024" version="1.1" xmlns="http://www.w3.org/2000/svg" p-id="3627" xmlns:xlink="http://www.w3.org/1999/xlink" width="200" height="200"><path d="M883.313 564.345L533.888 905.633c-12.444 12.155-32.319 12.142-44.748-0.029L140.189 563.895a233.814 233.814 0 0 1-12.757-12.493L126 550l0.001-0.124C87.528 508.467 64 452.981 64 392c0-128.13 103.87-232 232-232 98.189 0 182.131 60.997 216 147.166C545.869 220.997 629.811 160 728 160c128.13 0 232 103.87 232 232 0 60.981-23.527 116.466-62 157.875V550l-1.386 1.354a233.886 233.886 0 0 1-13.301 12.991z" fill="#707070" p-id="3628"></path></svg>