<?xml version="1.0" standalone="no"?><!DOCTYPE svg PUBLIC "-//W3C//DTD SVG 1.1//EN" "http://www.w3.org/Graphics/SVG/1.1/DTD/svg11.dtd"><svg t="1670402180653" class="icon" viewBox="0 0 1070 1024" version="1.1" xmlns="http://www.w3.org/2000/svg" p-id="5513" xmlns:xlink="http://www.w3.org/1999/xlink" width="208.984375" height="200"><path d="M562.196078 906.039216c-10.039216 0-18.823529-8.784314-18.823529-18.82353V488.156863c0-10.039216 8.784314-18.823529 18.823529-18.82353s18.823529 8.784314 18.82353 18.82353v400.313725c0 10.039216-7.529412 17.568627-18.82353 17.568628z" fill="#707070" p-id="5514"></path><path d="M698.980392 601.098039c-3.764706 0-7.529412-1.254902-11.294117-3.764706l-133.019608-94.117647c-8.784314-6.27451-10.039216-17.568627-5.019608-26.352941 6.27451-8.784314 17.568627-10.039216 26.352941-5.019608l133.019608 94.117647c8.784314 6.27451 10.039216 17.568627 5.019608 26.352941-2.509804 5.019608-8.784314 8.784314-15.058824 8.784314z" fill="#707070" p-id="5515"></path><path d="M429.176471 601.098039c-6.27451 0-11.294118-2.509804-15.058824-7.529412-6.27451-8.784314-3.764706-20.078431 5.019608-26.352941L552.156863 471.843137c8.784314-6.27451 20.078431-3.764706 26.352941 5.019608s3.764706 20.078431-5.019608 26.352941l-133.019608 94.117647c-3.764706 2.509804-7.529412 3.764706-11.294117 3.764706z" fill="#707070" p-id="5516"></path><path d="M759.215686 706.509804c-10.039216 0-18.823529-8.784314-18.823529-18.823529s8.784314-18.823529 18.823529-18.82353c100.392157 0 180.705882-81.568627 180.705883-180.705882 0-89.098039-64-164.392157-151.843138-178.196079l-10.039215-1.254902-3.764706-10.039215C737.882353 208.313725 653.803922 150.588235 558.431373 150.588235c-96.627451 0-180.705882 57.72549-214.588236 148.078432l-3.764706 10.039215-10.039215 2.509804c-84.078431 17.568627-144.313725 91.607843-144.313726 176.941177 0 51.45098 21.333333 100.392157 58.980392 134.27451 7.529412 7.529412 8.784314 18.823529 1.254902 26.352941-7.529412 7.529412-18.823529 8.784314-26.352941 1.254902-45.176471-41.411765-71.529412-100.392157-71.529412-161.882353 0-100.392157 69.019608-186.980392 164.392157-212.078432 42.666667-99.137255 138.039216-163.137255 245.960785-163.137255 107.921569 0 203.294118 62.745098 245.960784 160.627451 100.392157 21.333333 173.176471 109.176471 173.17647 213.333334 0 121.72549-97.882353 219.607843-218.352941 219.607843z" fill="#707070" p-id="5517"></path><path d="M299.921569 695.215686c-2.509804 0-3.764706 0-6.27451-1.254902-1.254902 0-3.764706-1.254902-5.019608-1.254902-10.039216-3.764706-15.058824-15.058824-11.294118-23.843137 3.764706-10.039216 15.058824-15.058824 23.843138-11.294118l3.764705 1.254902c10.039216 3.764706 15.058824 13.803922 11.294118 23.843138-1.254902 7.529412-8.784314 12.54902-16.313725 12.549019z" fill="#707070" p-id="5518"></path><path d="M422.901961 706.509804h-52.705883c-10.039216 0-18.823529-8.784314-18.823529-18.823529s8.784314-18.823529 18.823529-18.82353h52.705883c10.039216 0 18.823529 8.784314 18.823529 18.82353s-8.784314 18.823529-18.823529 18.823529z" fill="#707070" p-id="5519"></path></svg>